<?xml version="1.0" encoding="UTF-8"?><svg id="_レイヤー_2" xmlns="http://www.w3.org/2000/svg" viewBox="0 0 167.9 167.9"><defs><style>.cls-1{fill:#fff;}.cls-2{fill:#040000;}.cls-3{fill:#e95377;}</style></defs><g id="_ロゴ"><circle class="cls-2" cx="83.95" cy="83.95" r="83.95"/><path class="cls-3" d="M80.25,65.05l-.02-1.06-1.68.03-1.99-1.49c-.24-.18-.57-.13-.75.11s-.13.57.11.75l1.99,1.49.44,1.62,1.03-.28-.31-1.14,1.18-.02Z"/><path class="cls-1" d="M117.59,44.7c-15.66,0-29.2,9.22-35.49,22.51-2.41,5.08-3.76,10.76-3.76,16.75,0,15.46-12.58,28.03-28.03,28.03s-28.03-12.58-28.03-28.03,12.58-28.03,28.03-28.03c3.58,0,7.08.69,10.36,1.99l1.98,4.39c.55,1.22,1.69,2.08,3.01,2.26l6.48.92c4,.57,7.05-3.5,5.39-7.18l-2.69-5.97c-.55-1.22-1.69-2.08-3.01-2.26l-2.28-.32c-5.86-3.3-12.46-5.04-19.24-5.04-21.64,0-39.25,17.61-39.25,39.25s17.61,39.25,39.25,39.25c15.66,0,29.2-9.22,35.49-22.51,2.41-5.08,3.76-10.76,3.76-16.75,0-15.46,12.58-28.03,28.03-28.03s28.03,12.58,28.03,28.03-13.8,30.3-31.79,30.61c-18.3.32-26.82-10.8-26.82-10.8,0,0,3.86,19.45,30.57,19.45,21.64,0,39.25-17.61,39.25-39.25s-17.61-39.25-39.25-39.25Z"/><ellipse class="cls-3" cx="71.75" cy="62.64" rx=".81" ry="1.95" transform="translate(-4.35 119.91) rotate(-78.08)"/><ellipse class="cls-3" cx="74.69" cy="58.71" rx=".81" ry="1.95" transform="translate(-18.85 42.08) rotate(-28.08)"/><path class="cls-3" d="M80.25,65.05l-.02-1.06-1.68.03-1.99-1.49c-.24-.18-.57-.13-.75.11s-.13.57.11.75l1.99,1.49.44,1.62,1.03-.28-.31-1.14,1.18-.02Z"/><path class="cls-1" d="M117.59,44.7c-15.66,0-29.2,9.22-35.49,22.51-2.41,5.08-3.76,10.76-3.76,16.75,0,15.46-12.58,28.03-28.03,28.03s-28.03-12.58-28.03-28.03,12.58-28.03,28.03-28.03c3.58,0,7.08.69,10.36,1.99l1.98,4.39c.55,1.22,1.69,2.08,3.01,2.26l6.48.92c4,.57,7.05-3.5,5.39-7.18l-2.69-5.97c-.55-1.22-1.69-2.08-3.01-2.26l-2.28-.32c-5.86-3.3-12.46-5.04-19.24-5.04-21.64,0-39.25,17.61-39.25,39.25s17.61,39.25,39.25,39.25c15.66,0,29.2-9.22,35.49-22.51,2.41-5.08,3.76-10.76,3.76-16.75,0-15.46,12.58-28.03,28.03-28.03s28.03,12.58,28.03,28.03-13.8,30.3-31.79,30.61c-18.3.32-26.82-10.8-26.82-10.8,0,0,3.86,19.45,30.57,19.45,21.64,0,39.25-17.61,39.25-39.25s-17.61-39.25-39.25-39.25Z"/><ellipse class="cls-3" cx="71.75" cy="62.64" rx=".81" ry="1.95" transform="translate(-4.35 119.91) rotate(-78.08)"/><ellipse class="cls-3" cx="74.69" cy="58.71" rx=".81" ry="1.95" transform="translate(-18.85 42.08) rotate(-28.08)"/></g></svg>