<?xml version="1.0" encoding="UTF-8"?><svg id="_レイヤー_2" xmlns="http://www.w3.org/2000/svg" viewBox="0 0 137.94 77.97"><defs><style>.cls-1{fill:#231815;}.cls-2{fill:#fff;}.cls-3{fill:none;stroke:#231815;stroke-linecap:round;stroke-linejoin:round;stroke-width:8px;}.cls-4{fill:#e95377;}</style></defs><g id="_ロゴ"><path class="cls-3" d="M98.96,4c-13.95,0-26.02,8.21-31.63,20.06-2.15,4.53-3.35,9.59-3.35,14.93,0,13.78-11.21,24.99-24.99,24.99s-24.99-11.21-24.99-24.99,11.21-24.99,24.99-24.99c3.19,0,6.31.61,9.23,1.77l1.76,3.91c.49,1.09,1.5,1.85,2.69,2.02l5.78.82c1.6.23,3.03-.38,3.99-1.42l1.16.87.39,1.45.92-.25-.28-1.01,1.05-.02-.02-.95-1.5.02-1.16-.87c.73-1.21.92-2.75.25-4.22l-2.4-5.32c-.49-1.09-1.5-1.85-2.69-2.02l-2.03-.29c-5.22-2.94-11.1-4.49-17.15-4.49C19.69,4,4,19.69,4,38.99s15.69,34.99,34.99,34.99c13.95,0,26.02-8.21,31.63-20.06,2.15-4.53,3.35-9.59,3.35-14.93,0-13.78,11.21-24.99,24.99-24.99s24.99,11.21,24.99,24.99-12.3,27-28.34,27.28c-16.31.28-23.9-9.63-23.9-9.63,0,0,3.44,17.33,27.25,17.33,19.29,0,34.99-15.69,34.99-34.99S118.25,4,98.96,4Z"/><path class="cls-1" d="M98.96,4c-13.95,0-26.02,8.21-31.63,20.06-2.15,4.53-3.35,9.59-3.35,14.93,0,13.78-11.21,24.99-24.99,24.99s-24.99-11.21-24.99-24.99,11.21-24.99,24.99-24.99c3.19,0,6.31.61,9.23,1.77l1.76,3.91c.49,1.09,1.5,1.85,2.69,2.02l5.78.82c1.6.23,3.03-.38,3.99-1.42l1.16.87.39,1.45.92-.25-.28-1.01,1.05-.02-.02-.95-1.5.02-1.16-.87c.73-1.21.92-2.75.25-4.22l-2.4-5.32c-.49-1.09-1.5-1.85-2.69-2.02l-2.03-.29c-5.22-2.94-11.1-4.49-17.15-4.49C19.69,4,4,19.69,4,38.99s15.69,34.99,34.99,34.99c13.95,0,26.02-8.21,31.63-20.06,2.15-4.53,3.35-9.59,3.35-14.93,0-13.78,11.21-24.99,24.99-24.99s24.99,11.21,24.99,24.99-12.3,27-28.34,27.28c-16.31.28-23.9-9.63-23.9-9.63,0,0,3.44,17.33,27.25,17.33,19.29,0,34.99-15.69,34.99-34.99S118.25,4,98.96,4Z"/><path class="cls-4" d="M65.67,22.14l-.02-.95-1.5.02-1.77-1.33c-.21-.16-.51-.12-.66.09s-.12.51.09.66l1.77,1.33.39,1.45.92-.25-.28-1.01,1.05-.02Z"/><path class="cls-2" d="M98.96,4c-13.95,0-26.02,8.21-31.63,20.06-2.15,4.53-3.35,9.59-3.35,14.93,0,13.78-11.21,24.99-24.99,24.99s-24.99-11.21-24.99-24.99,11.21-24.99,24.99-24.99c3.19,0,6.31.61,9.23,1.77l1.76,3.91c.49,1.09,1.5,1.85,2.69,2.02l5.78.82c3.56.51,6.29-3.12,4.81-6.4l-2.4-5.32c-.49-1.09-1.5-1.85-2.69-2.02l-2.03-.29c-5.22-2.94-11.1-4.49-17.15-4.49C19.69,4,4,19.69,4,38.99s15.69,34.99,34.99,34.99c13.95,0,26.02-8.21,31.63-20.06,2.15-4.53,3.35-9.59,3.35-14.93,0-13.78,11.21-24.99,24.99-24.99s24.99,11.21,24.99,24.99-12.3,27-28.34,27.28c-16.31.28-23.9-9.63-23.9-9.63,0,0,3.44,17.33,27.25,17.33,19.29,0,34.99-15.69,34.99-34.99S118.25,4,98.96,4Z"/><ellipse class="cls-4" cx="58.1" cy="19.99" rx=".72" ry="1.74" transform="translate(26.54 72.71) rotate(-78.08)"/><ellipse class="cls-4" cx="60.72" cy="16.49" rx=".72" ry="1.74" transform="translate(-.62 30.53) rotate(-28.08)"/></g></svg>